<svg xmlns="http://www.w3.org/2000/svg" width="420" height="200" viewBox="0 0 420 200">
  <rect x="30" y="80" width="80" height="40" fill="#e0e0e0" stroke="#888"/>
  <text x="70" y="105" font-size="14" text-anchor="middle" fill="#333">Input</text>
  <rect x="310" y="80" width="80" height="40" fill="#e0e0e0" stroke="#888"/>
  <text x="350" y="105" font-size="14" text-anchor="middle" fill="#333">Output</text>
  <rect x="170" y="30" width="80" height="40" fill="#b3d1ff" stroke="#333"/>
  <text x="210" y="55" font-size="12" text-anchor="middle" fill="#333">PREROUTING</text>
  <rect x="170" y="80" width="80" height="40" fill="#b3d1ff" stroke="#333"/>
  <text x="210" y="105" font-size="12" text-anchor="middle" fill="#333">FORWARD</text>
  <rect x="170" y="130" width="80" height="40" fill="#b3d1ff" stroke="#333"/>
  <text x="210" y="155" font-size="12" text-anchor="middle" fill="#333">POSTROUTING</text>
  <path d="M110 100 Q140 100 170 50" stroke="#1976d2" stroke-width="2" fill="none" marker-end="url(#arrow)"/>
  <path d="M110 100 Q140 100 170 100" stroke="#1976d2" stroke-width="2" fill="none" marker-end="url(#arrow)"/>
  <path d="M110 100 Q140 100 170 150" stroke="#1976d2" stroke-width="2" fill="none" marker-end="url(#arrow)"/>
  <path d="M250 50 Q280 100 310 100" stroke="#388e3c" stroke-width="2" fill="none" marker-end="url(#arrow)"/>
  <path d="M250 100 Q280 100 310 100" stroke="#388e3c" stroke-width="2" fill="none" marker-end="url(#arrow)"/>
  <path d="M250 150 Q280 100 310 100" stroke="#388e3c" stroke-width="2" fill="none" marker-end="url(#arrow)"/>
  <defs>
    <marker id="arrow" markerWidth="10" markerHeight="7" refX="10" refY="3.5" orient="auto">
      <polygon points="0 0, 10 3.5, 0 7" fill="#333"/>
    </marker>
  </defs>
</svg>